<?xml version="1.0" encoding="utf-8"?>
<!-- Generator: Adobe Illustrator 24.0.0, SVG Export Plug-In . SVG Version: 6.00 Build 0)  -->
<svg version="1.1" id="Layer_1" xmlns="http://www.w3.org/2000/svg" xmlns:xlink="http://www.w3.org/1999/xlink" x="0px" y="0px"
	 viewBox="0 0 175 200" enable-background="new 0 0 175 200" xml:space="preserve">
<g>
	<g>
		<path fill="#FCB017" d="M130.643,11.463H46.197L3.973,84.597l42.224,73.133h84.446l42.224-73.133L130.643,11.463z
			 M126.914,150.164l-0.319,0.553h-76.35L12.071,84.597l38.174-66.121h0.638l8.654,14.989l9.219-15.968h1.215l-9.827,17.021
			l4.637,8.032l14.464-25.052h1.619L65.591,43.95l4.334,7.506l19.607-33.96h2.429L71.139,53.559l3.928,6.804l24.75-42.868h3.239
			l-26.37,45.673l3.574,6.191l29.944-51.864h4.049l-31.968,55.37l3.119,5.402l35.087-60.772h4.858l-37.516,64.98l3.005,5.204
			l37.588-65.105l3.24,5.607L94.077,93.29L126.914,150.164z"/>
	</g>
	<g>
		<g>
			<path fill="#FCB017" d="M17.031,182.719c0.409,0.536,0.614,1.2,0.614,1.995c0,1.096-0.422,1.941-1.264,2.537
				c-0.842,0.596-2.071,0.894-3.684,0.894H6.414v-12.64h5.923c1.492,0,2.642,0.292,3.448,0.876c0.806,0.584,1.21,1.388,1.21,2.411
				c0,0.626-0.144,1.18-0.434,1.661c-0.289,0.481-0.686,0.855-1.192,1.12C16.068,181.801,16.621,182.183,17.031,182.719z
				 M8.761,177.347v3.485h3.322c0.818,0,1.447-0.148,1.887-0.443c0.439-0.295,0.658-0.725,0.658-1.291
				c0-0.577-0.22-1.014-0.658-1.309c-0.44-0.295-1.069-0.442-1.887-0.442H8.761z M15.279,184.48c0-1.216-0.908-1.824-2.726-1.824
				H8.761v3.647h3.791C14.37,186.303,15.279,185.695,15.279,184.48z"/>
			<path fill="#FCB017" d="M32.035,188.145l-2.582-3.702c-0.109,0.012-0.27,0.018-0.487,0.018h-2.852v3.684h-2.348v-12.64h5.2
				c1.095,0,2.05,0.181,2.862,0.542c0.813,0.361,1.436,0.879,1.869,1.553c0.433,0.674,0.65,1.475,0.65,2.401
				c0,0.951-0.232,1.77-0.695,2.456c-0.463,0.686-1.129,1.198-1.995,1.535l2.907,4.153H32.035z M31.186,178.142
				c-0.53-0.434-1.306-0.65-2.329-0.65h-2.744v5.038h2.744c1.023,0,1.8-0.219,2.329-0.659c0.53-0.44,0.794-1.063,0.794-1.869
				C31.981,179.195,31.716,178.575,31.186,178.142z"/>
			<path fill="#FCB017" d="M48.774,185.22h-6.32l-1.246,2.925h-2.419l5.687-12.64h2.312l5.706,12.64h-2.456L48.774,185.22z
				 M47.997,183.378l-2.384-5.525l-2.365,5.525H47.997z"/>
			<path fill="#FCB017" d="M68.943,175.505v12.64h-1.932l-6.97-8.559v8.559h-2.329v-12.64h1.932l6.97,8.559v-8.559H68.943z"/>
			<path fill="#FCB017" d="M75.949,175.505h5.525c1.348,0,2.545,0.262,3.593,0.785c1.047,0.524,1.86,1.264,2.438,2.221
				c0.577,0.957,0.867,2.062,0.867,3.314s-0.29,2.356-0.867,3.313c-0.577,0.957-1.39,1.697-2.438,2.221
				c-1.047,0.524-2.245,0.785-3.593,0.785h-5.525V175.505z M81.366,186.159c0.927,0,1.743-0.177,2.446-0.533
				c0.704-0.355,1.246-0.86,1.626-1.516c0.379-0.656,0.568-1.418,0.568-2.284c0-0.867-0.189-1.628-0.568-2.284
				c-0.38-0.656-0.921-1.162-1.626-1.517c-0.703-0.355-1.519-0.533-2.446-0.533h-3.069v8.667H81.366z"/>
			<path fill="#FCB017" d="M114.3,175.505v12.64h-1.932l-6.97-8.559v8.559h-2.329v-12.64h1.932l6.97,8.559v-8.559H114.3z"/>
			<path fill="#FCB017" d="M129.504,185.22h-6.32l-1.246,2.925h-2.419l5.687-12.64h2.312l5.706,12.64h-2.456L129.504,185.22z
				 M128.727,183.378l-2.384-5.525l-2.365,5.525H128.727z"/>
			<path fill="#FCB017" d="M150.052,188.145l-0.018-8.378l-4.153,6.934h-1.047l-4.153-6.825v8.27h-2.239v-12.64h1.932l5.02,8.378
				l4.93-8.378h1.932l0.017,12.64H150.052z"/>
			<path fill="#FCB017" d="M168.777,186.177v1.968h-9.48v-12.64h9.227v1.968h-6.879v3.286h6.103v1.932h-6.103v3.485H168.777z"/>
		</g>
	</g>
</g>
</svg>
