<?xml version="1.0" encoding="utf-8"?>
<!-- Generator: Adobe Illustrator 24.0.0, SVG Export Plug-In . SVG Version: 6.00 Build 0)  -->
<svg version="1.1" id="Layer_1" xmlns="http://www.w3.org/2000/svg" xmlns:xlink="http://www.w3.org/1999/xlink" x="0px" y="0px"
	 viewBox="0 0 175 200" enable-background="new 0 0 175 200" xml:space="preserve">
<g>
	<g>
		<path fill="#0066A9" d="M18.72,177.971c0.428,0,0.801-0.033,1.117-0.099c0.317-0.066,0.587-0.15,0.814-0.252
			c0.227-0.101,0.417-0.212,0.574-0.333c0.155-0.121,0.295-0.232,0.421-0.334c0.125-0.101,0.242-0.185,0.351-0.252
			c0.109-0.066,0.227-0.099,0.353-0.099c0.124,0,0.227,0.022,0.31,0.064c0.081,0.043,0.142,0.092,0.181,0.146l1.334,1.603
			c-0.742,0.882-1.62,1.551-2.639,2.007c-1.019,0.456-2.176,0.685-3.469,0.685c-1.078,0-2.03-0.189-2.862-0.568
			c-0.83-0.378-1.53-0.899-2.1-1.562c-0.568-0.663-1-1.449-1.292-2.358c-0.293-0.909-0.439-1.89-0.439-2.943
			c0-0.975,0.109-1.899,0.327-2.773c0.22-0.874,0.528-1.681,0.925-2.423c0.399-0.741,0.877-1.408,1.434-2.001
			c0.557-0.593,1.176-1.096,1.855-1.51c0.679-0.413,1.408-0.731,2.189-0.954c0.779-0.222,1.595-0.334,2.445-0.334
			c0.64,0,1.224,0.06,1.749,0.181c0.526,0.121,1.002,0.289,1.428,0.503c0.425,0.214,0.805,0.47,1.141,0.766
			c0.336,0.297,0.627,0.624,0.877,0.983l-1.333,1.545c-0.094,0.109-0.203,0.207-0.328,0.293c-0.125,0.086-0.288,0.129-0.491,0.129
			c-0.133,0-0.255-0.031-0.364-0.094c-0.109-0.062-0.22-0.138-0.334-0.228c-0.113-0.09-0.24-0.189-0.38-0.298
			c-0.14-0.109-0.308-0.209-0.502-0.298c-0.196-0.09-0.428-0.166-0.698-0.228c-0.268-0.062-0.587-0.093-0.952-0.093
			c-0.718,0-1.388,0.152-2.008,0.456c-0.62,0.304-1.159,0.739-1.615,1.305c-0.456,0.566-0.814,1.252-1.07,2.06
			c-0.258,0.807-0.386,1.71-0.386,2.709c0,0.726,0.087,1.374,0.262,1.943c0.175,0.569,0.415,1.051,0.72,1.445
			c0.304,0.394,0.668,0.694,1.089,0.901C17.771,177.868,18.229,177.971,18.72,177.971z"/>
		<path fill="#0066A9" d="M47.648,171.301c0,0.92-0.107,1.802-0.323,2.645c-0.214,0.842-0.519,1.627-0.912,2.352
			c-0.395,0.726-0.871,1.385-1.428,1.978c-0.557,0.593-1.183,1.098-1.879,1.515c-0.694,0.418-1.447,0.741-2.257,0.972
			c-0.812,0.23-1.666,0.345-2.563,0.345c-1.124,0-2.132-0.197-3.025-0.591c-0.893-0.394-1.652-0.932-2.276-1.615
			c-0.626-0.683-1.104-1.486-1.434-2.411c-0.332-0.925-0.498-1.921-0.498-2.99c0-0.92,0.107-1.804,0.323-2.65
			c0.214-0.847,0.519-1.633,0.912-2.358c0.395-0.726,0.873-1.385,1.434-1.978c0.561-0.593,1.19-1.098,1.884-1.515
			c0.694-0.418,1.447-0.741,2.259-0.971c0.81-0.23,1.668-0.346,2.574-0.346c1.115,0,2.119,0.197,3.012,0.591
			c0.893,0.394,1.652,0.934,2.272,1.621c0.62,0.687,1.096,1.494,1.427,2.422C47.482,169.245,47.648,170.24,47.648,171.301z
			 M43.739,171.394c0-0.702-0.085-1.34-0.251-1.913c-0.168-0.573-0.415-1.065-0.738-1.475s-0.72-0.725-1.189-0.948
			c-0.467-0.222-0.998-0.334-1.591-0.334c-0.781,0-1.478,0.162-2.095,0.485c-0.616,0.324-1.141,0.778-1.574,1.363
			c-0.432,0.586-0.764,1.29-0.995,2.112c-0.231,0.824-0.345,1.734-0.345,2.733c0,0.702,0.083,1.338,0.245,1.907
			c0.164,0.57,0.404,1.058,0.72,1.463c0.316,0.406,0.709,0.719,1.177,0.942c0.467,0.222,1.002,0.334,1.602,0.334
			c0.781,0,1.48-0.16,2.1-0.48c0.622-0.32,1.148-0.772,1.58-1.357c0.434-0.585,0.768-1.287,1.002-2.106
			C43.621,173.302,43.739,172.393,43.739,171.394z"/>
		<path fill="#0066A9" d="M63.586,174.94c0.126-0.257,0.255-0.511,0.391-0.76c0.137-0.25,0.279-0.499,0.428-0.749l5.219-8.976
			c0.155-0.265,0.351-0.429,0.585-0.491c0.234-0.062,0.46-0.094,0.679-0.094h2.995l-2.106,17.05h-3.348l1.194-9.923
			c0.024-0.211,0.061-0.443,0.111-0.697c0.052-0.253,0.107-0.516,0.17-0.79l-5.125,8.8c-0.157,0.265-0.36,0.462-0.609,0.591
			c-0.249,0.129-0.522,0.193-0.819,0.193h-0.515c-0.297,0-0.556-0.066-0.779-0.199c-0.221-0.132-0.377-0.328-0.461-0.585
			l-2.995-8.823c-0.017,0.265-0.029,0.523-0.041,0.772c-0.013,0.25-0.03,0.476-0.054,0.679l-1.17,9.982h-3.37l2.106-17.039h2.903
			c0.162,0,0.308,0,0.432,0c0.125,0,0.236,0.018,0.334,0.053c0.098,0.035,0.181,0.092,0.251,0.17c0.07,0.078,0.129,0.191,0.175,0.34
			l2.997,8.985C63.328,173.921,63.47,174.425,63.586,174.94z"/>
		<path fill="#0066A9" d="M84.579,175.174l-0.701,5.746h-3.792l2.084-17.05h5.64c1.015,0,1.882,0.123,2.604,0.369
			c0.722,0.246,1.314,0.585,1.779,1.018c0.463,0.433,0.805,0.944,1.024,1.533c0.218,0.589,0.327,1.223,0.327,1.902
			c0,0.928-0.142,1.789-0.426,2.58c-0.284,0.792-0.72,1.476-1.305,2.054c-0.585,0.578-1.327,1.03-2.224,1.357
			c-0.897,0.328-1.958,0.491-3.183,0.491H84.579z M85.633,166.714l-0.69,5.593h1.836c0.546,0,1.004-0.08,1.375-0.24
			c0.371-0.16,0.672-0.386,0.902-0.679c0.229-0.293,0.395-0.641,0.496-1.047c0.101-0.406,0.151-0.85,0.151-1.334
			c0-0.335-0.044-0.644-0.133-0.925c-0.09-0.281-0.229-0.523-0.417-0.725c-0.186-0.203-0.423-0.361-0.707-0.474
			c-0.286-0.113-0.622-0.169-1.013-0.169H85.633z"/>
		<path fill="#0066A9" d="M112.313,180.92h-2.949c-0.327,0-0.591-0.076-0.79-0.228c-0.197-0.152-0.317-0.353-0.356-0.603
			l-0.526-3.066h-5.793l-1.264,3.066c-0.085,0.219-0.253,0.411-0.504,0.579c-0.249,0.168-0.526,0.252-0.83,0.252h-2.995l8.144-17.05
			h3.909L112.313,180.92z M102.964,174.425h4.283l-0.83-4.868c-0.072-0.406-0.148-0.817-0.229-1.235
			c-0.083-0.417-0.151-0.798-0.205-1.141c-0.063,0.187-0.144,0.4-0.245,0.638c-0.101,0.238-0.201,0.47-0.299,0.697
			c-0.098,0.226-0.192,0.437-0.281,0.632c-0.09,0.195-0.155,0.34-0.194,0.433L102.964,174.425z"/>
		<path fill="#0066A9" d="M123.659,163.887c0.113,0.012,0.214,0.039,0.305,0.082c0.089,0.043,0.17,0.103,0.24,0.181
			c0.07,0.078,0.14,0.179,0.21,0.304l5.98,10.532c0.015-0.273,0.039-0.534,0.07-0.784c0.031-0.25,0.059-0.484,0.081-0.702
			l1.148-9.631h3.37l-2.106,17.05h-1.989c-0.297,0-0.543-0.043-0.738-0.129c-0.194-0.086-0.362-0.253-0.502-0.503l-5.957-10.52
			c-0.015,0.219-0.033,0.43-0.052,0.632c-0.02,0.203-0.039,0.394-0.053,0.573l-1.17,9.947h-3.37l2.106-17.05h2.013
			C123.408,163.87,123.547,163.876,123.659,163.887z"/>
		<path fill="#0066A9" d="M150.1,174.39l-0.806,6.53h-3.816l0.808-6.495l-4.389-10.555h3.394c0.328,0,0.583,0.076,0.766,0.228
			c0.185,0.152,0.319,0.353,0.404,0.603l1.639,5.16c0.109,0.344,0.209,0.675,0.299,0.995c0.089,0.32,0.164,0.628,0.227,0.925
			c0.148-0.296,0.312-0.603,0.493-0.919c0.179-0.316,0.369-0.65,0.572-1.001l2.903-5.16c0.116-0.211,0.288-0.402,0.515-0.573
			c0.225-0.172,0.498-0.257,0.819-0.257h3.16L150.1,174.39z"/>
	</g>
	<g>
		<g>
			<polygon fill="#0066A9" points="170.608,145.815 117.49,50.943 84.233,110.341 104.095,145.815 			"/>
			<polygon fill="#0066A9" points="97.104,145.815 80.738,116.585 64.372,145.815 			"/>
		</g>
		<polygon fill="#0066A9" points="79.057,11.534 4.392,145.815 56.644,145.815 105.184,58.197 		"/>
	</g>
</g>
</svg>
