<?xml version="1.0" encoding="utf-8"?>
<!-- Generator: Adobe Illustrator 24.0.0, SVG Export Plug-In . SVG Version: 6.00 Build 0)  -->
<svg version="1.1" id="Layer_1" xmlns="http://www.w3.org/2000/svg" xmlns:xlink="http://www.w3.org/1999/xlink" x="0px" y="0px"
	 viewBox="0 0 175 200" enable-background="new 0 0 175 200" xml:space="preserve">
<g>
	<g>
		<polygon fill="#EB5A59" points="38.281,9.822 64.462,36.003 137.493,36.003 137.493,109.034 163.674,135.215 163.674,9.822 		"/>
		<path fill="#EB5A59" d="M16.287,36.003v121.206h121.206v-48.175L64.462,36.003H16.287z M114.403,139.486H35.467V57.967h5.578
			v75.941h73.358V139.486z"/>
	</g>
	<g>
		<path fill="#EB5A59" d="M26.041,184.37c0.102,0,0.195,0.042,0.278,0.124l0.729,0.796c-0.563,0.652-1.245,1.16-2.047,1.525
			c-0.803,0.364-1.77,0.546-2.9,0.546c-0.991,0-1.889-0.171-2.694-0.513c-0.806-0.342-1.493-0.821-2.062-1.438
			c-0.569-0.617-1.01-1.357-1.323-2.22c-0.313-0.863-0.47-1.812-0.47-2.848c0-1.035,0.168-1.984,0.503-2.848
			c0.336-0.863,0.808-1.604,1.415-2.224c0.607-0.62,1.334-1.101,2.181-1.443c0.847-0.342,1.782-0.513,2.805-0.513
			c1.01,0,1.881,0.157,2.612,0.47c0.732,0.314,1.383,0.738,1.951,1.275l-0.603,0.853c-0.045,0.064-0.096,0.117-0.153,0.158
			c-0.058,0.042-0.141,0.063-0.249,0.063c-0.084,0-0.172-0.03-0.264-0.091c-0.093-0.061-0.203-0.136-0.331-0.225
			c-0.128-0.089-0.278-0.186-0.451-0.288c-0.172-0.102-0.377-0.198-0.613-0.288s-0.512-0.165-0.824-0.226
			c-0.314-0.061-0.675-0.091-1.084-0.091c-0.735,0-1.408,0.126-2.019,0.378c-0.61,0.253-1.136,0.612-1.577,1.079
			c-0.44,0.466-0.784,1.035-1.03,1.707c-0.246,0.671-0.369,1.422-0.369,2.253c0,0.857,0.123,1.621,0.369,2.291
			c0.246,0.671,0.581,1.239,1.007,1.702c0.425,0.463,0.928,0.816,1.51,1.06c0.582,0.243,1.208,0.364,1.88,0.364
			c0.408,0,0.776-0.024,1.103-0.072c0.325-0.048,0.628-0.123,0.905-0.226c0.278-0.102,0.537-0.231,0.777-0.388
			c0.239-0.157,0.48-0.344,0.724-0.561C25.833,184.417,25.939,184.37,26.041,184.37z"/>
		<path fill="#EB5A59" d="M47.049,180.342c0,1.029-0.163,1.974-0.489,2.833c-0.326,0.86-0.786,1.6-1.381,2.22
			s-1.309,1.101-2.143,1.443c-0.834,0.342-1.757,0.513-2.767,0.513c-1.01,0-1.931-0.171-2.761-0.513
			c-0.831-0.342-1.544-0.823-2.139-1.443s-1.055-1.36-1.381-2.22c-0.326-0.86-0.488-1.804-0.488-2.833
			c0-1.029,0.162-1.973,0.488-2.833c0.326-0.86,0.786-1.601,1.381-2.225c0.595-0.623,1.308-1.107,2.139-1.453
			c0.83-0.345,1.751-0.518,2.761-0.518c1.01,0,1.933,0.172,2.767,0.518c0.834,0.345,1.548,0.83,2.143,1.453
			c0.595,0.623,1.055,1.365,1.381,2.225C46.886,178.369,47.049,179.313,47.049,180.342z M45.141,180.342
			c0-0.844-0.115-1.601-0.346-2.272c-0.229-0.671-0.556-1.239-0.977-1.702c-0.422-0.463-0.934-0.82-1.534-1.069
			c-0.601-0.25-1.272-0.374-2.014-0.374c-0.735,0-1.403,0.124-2.004,0.374c-0.601,0.249-1.113,0.605-1.539,1.069
			c-0.425,0.463-0.752,1.031-0.982,1.702c-0.23,0.671-0.345,1.428-0.345,2.272c0,0.844,0.114,1.6,0.345,2.268
			c0.231,0.668,0.558,1.234,0.982,1.697c0.426,0.463,0.938,0.818,1.539,1.064c0.601,0.246,1.269,0.369,2.004,0.369
			c0.741,0,1.413-0.123,2.014-0.369c0.601-0.246,1.112-0.601,1.534-1.064c0.422-0.463,0.748-1.029,0.977-1.697
			C45.026,181.942,45.141,181.186,45.141,180.342z"/>
		<path fill="#EB5A59" d="M61.377,182.725c0.067,0.169,0.133,0.34,0.197,0.513c0.063-0.179,0.131-0.35,0.201-0.513
			c0.07-0.163,0.15-0.328,0.239-0.494l4.65-8.447c0.083-0.147,0.17-0.236,0.259-0.269c0.09-0.032,0.218-0.048,0.384-0.048h1.371
			v13.74h-1.63v-10.096c0-0.134,0.003-0.278,0.01-0.432c0.006-0.153,0.016-0.31,0.028-0.47l-4.708,8.591
			c-0.159,0.288-0.383,0.432-0.671,0.432H61.44c-0.287,0-0.511-0.144-0.671-0.432l-4.813-8.62c0.02,0.167,0.034,0.329,0.043,0.489
			c0.01,0.16,0.015,0.307,0.015,0.441v10.096h-1.63v-13.74h1.371c0.166,0,0.294,0.016,0.384,0.048
			c0.089,0.032,0.176,0.122,0.259,0.269l4.746,8.456C61.233,182.394,61.311,182.556,61.377,182.725z"/>
		<path fill="#EB5A59" d="M78.861,182.068v5.139h-1.851v-13.74h4.056c0.869,0,1.625,0.101,2.268,0.302
			c0.642,0.201,1.175,0.487,1.597,0.858c0.422,0.371,0.736,0.818,0.944,1.342c0.208,0.524,0.311,1.109,0.311,1.755
			c0,0.639-0.112,1.224-0.336,1.754c-0.224,0.531-0.551,0.988-0.982,1.371c-0.432,0.384-0.967,0.683-1.606,0.896
			c-0.639,0.214-1.371,0.321-2.195,0.321H78.861z M78.861,180.592h2.205c0.53,0,0.999-0.07,1.404-0.211
			c0.406-0.141,0.747-0.337,1.021-0.59c0.274-0.252,0.482-0.554,0.623-0.906c0.141-0.352,0.211-0.738,0.211-1.16
			c0-0.876-0.27-1.56-0.81-2.052c-0.541-0.492-1.357-0.738-2.45-0.738h-2.205V180.592z"/>
		<path fill="#EB5A59" d="M103.312,187.207h-1.438c-0.166,0-0.301-0.041-0.402-0.124c-0.103-0.083-0.18-0.188-0.23-0.316
			l-1.285-3.317H93.79l-1.284,3.317c-0.045,0.115-0.122,0.217-0.23,0.307c-0.108,0.09-0.243,0.134-0.402,0.134h-1.438l5.494-13.74
			h1.889L103.312,187.207z M94.308,182.106h5.13l-2.157-5.59c-0.141-0.345-0.278-0.776-0.412-1.294
			c-0.07,0.262-0.139,0.503-0.206,0.724c-0.067,0.221-0.133,0.414-0.196,0.58L94.308,182.106z"/>
		<path fill="#EB5A59" d="M111.168,173.53c0.08,0.042,0.171,0.126,0.273,0.254l7.958,10.355c-0.019-0.166-0.031-0.327-0.038-0.484
			c-0.007-0.157-0.01-0.309-0.01-0.456v-9.732h1.63v13.74h-0.939c-0.147,0-0.27-0.025-0.369-0.077
			c-0.099-0.051-0.196-0.137-0.292-0.259l-7.949-10.346c0.013,0.16,0.022,0.316,0.029,0.47c0.006,0.153,0.01,0.294,0.01,0.422v9.789
			h-1.63v-13.74h0.958C110.966,173.468,111.089,173.489,111.168,173.53z"/>
		<path fill="#EB5A59" d="M134.424,181.742v5.465h-1.851v-5.465l-5.033-8.274h1.63c0.166,0,0.297,0.042,0.393,0.125
			c0.097,0.083,0.18,0.186,0.25,0.307l3.145,5.34c0.128,0.224,0.235,0.435,0.321,0.633c0.086,0.198,0.164,0.393,0.235,0.585
			c0.069-0.198,0.146-0.396,0.229-0.594c0.083-0.198,0.189-0.406,0.316-0.624l3.136-5.34c0.058-0.103,0.136-0.2,0.234-0.293
			c0.1-0.093,0.229-0.139,0.389-0.139h1.65L134.424,181.742z"/>
	</g>
</g>
</svg>
