<?xml version="1.0" encoding="utf-8"?>
<!-- Generator: Adobe Illustrator 24.0.0, SVG Export Plug-In . SVG Version: 6.00 Build 0)  -->
<svg version="1.1" id="Layer_1" xmlns="http://www.w3.org/2000/svg" xmlns:xlink="http://www.w3.org/1999/xlink" x="0px" y="0px"
	 viewBox="0 0 175 200" enable-background="new 0 0 175 200" xml:space="preserve">
<g>
	<path fill="#0066A9" d="M53.423,81.974L53.423,81.974c-8.346,0-15.174-6.828-15.174-15.174v0c0-8.346,6.828-15.174,15.174-15.174h0
		c8.346,0,15.174,6.828,15.174,15.174v0C68.597,75.146,61.769,81.974,53.423,81.974z"/>
	<path fill="#0066A9" d="M165.394,46.781c0-24.151-19.76-43.91-43.91-43.91h0c-24.151,0-43.911,19.76-43.911,43.91l0,0v64.166
		c0,0,87.813-9.777,87.821-64.159C165.394,46.785,165.394,46.783,165.394,46.781L165.394,46.781z"/>
	<path fill="#0066A9" d="M7.498,132.009c0,0.002,0,0.005,0,0.007v0c0,16.802,13.747,30.55,30.55,30.55h0
		c16.802,0,30.55-13.747,30.55-30.55v0V87.374C68.597,87.374,7.505,94.176,7.498,132.009z M38.047,140.044
		c-4.415,0-8.028-3.613-8.028-8.028c0-4.415,3.613-8.028,8.028-8.028s8.028,3.613,8.028,8.028
		C46.075,136.432,42.463,140.044,38.047,140.044z"/>
	<g>
		<path fill="#0066A9" d="M17.289,191.828c-1.626-0.885-2.9-2.106-3.822-3.667c-0.924-1.56-1.385-3.319-1.385-5.279
			c0-1.959,0.466-3.719,1.399-5.279c0.932-1.56,2.211-2.782,3.838-3.667c1.627-0.884,3.447-1.327,5.465-1.327
			c1.635,0,3.129,0.285,4.479,0.856c1.352,0.571,2.492,1.398,3.425,2.482l-2.397,2.254c-1.445-1.56-3.224-2.34-5.336-2.34
			c-1.369,0-2.596,0.3-3.68,0.899c-1.085,0.599-1.932,1.432-2.54,2.497c-0.609,1.065-0.913,2.273-0.913,3.624
			s0.304,2.559,0.913,3.624c0.608,1.066,1.455,1.898,2.54,2.497c1.084,0.599,2.311,0.898,3.68,0.898
			c2.112,0,3.891-0.789,5.336-2.368l2.397,2.283c-0.933,1.085-2.079,1.912-3.438,2.482c-1.36,0.571-2.858,0.856-4.494,0.856
			C20.737,193.155,18.916,192.713,17.289,191.828z"/>
		<path fill="#0066A9" d="M37.648,191.828c-1.637-0.885-2.92-2.111-3.851-3.681c-0.934-1.57-1.399-3.325-1.399-5.265
			c0-1.94,0.465-3.695,1.399-5.265c0.932-1.569,2.215-2.796,3.851-3.681c1.636-0.884,3.471-1.327,5.507-1.327
			c2.036,0,3.871,0.442,5.507,1.327c1.637,0.885,2.92,2.107,3.853,3.667c0.932,1.56,1.398,3.32,1.398,5.279
			c0,1.96-0.467,3.719-1.398,5.279c-0.933,1.56-2.216,2.782-3.853,3.667c-1.636,0.885-3.471,1.327-5.507,1.327
			C41.119,193.155,39.284,192.713,37.648,191.828z M46.751,189.003c1.065-0.6,1.901-1.436,2.511-2.511
			c0.609-1.074,0.913-2.278,0.913-3.609c0-1.332-0.304-2.535-0.913-3.61c-0.609-1.074-1.445-1.912-2.511-2.511
			c-1.065-0.599-2.265-0.899-3.596-0.899c-1.331,0-2.53,0.3-3.595,0.899c-1.066,0.599-1.902,1.436-2.512,2.511
			c-0.609,1.075-0.912,2.278-0.912,3.61c0,1.332,0.303,2.535,0.912,3.609c0.609,1.075,1.445,1.912,2.512,2.511
			c1.064,0.599,2.264,0.898,3.595,0.898C44.486,189.902,45.685,189.603,46.751,189.003z"/>
		<path fill="#0066A9" d="M76.198,192.87l-0.028-13.24l-6.563,10.957h-1.656l-6.562-10.786v13.069H57.85v-19.974h3.054l7.932,13.24
			l7.79-13.24h3.054l0.028,19.974H76.198z"/>
		<path fill="#0066A9" d="M97.841,173.752c1.284,0.57,2.269,1.389,2.953,2.454c0.685,1.065,1.027,2.331,1.027,3.795
			c0,1.446-0.343,2.706-1.027,3.781c-0.685,1.075-1.669,1.898-2.953,2.468c-1.284,0.571-2.792,0.856-4.522,0.856h-4.509v5.764h-3.71
			v-19.974h8.219C95.049,172.896,96.556,173.181,97.841,173.752z M96.828,182.94c0.836-0.685,1.255-1.664,1.255-2.939
			c0-1.274-0.419-2.254-1.255-2.939c-0.838-0.685-2.064-1.027-3.682-1.027h-4.337v7.932h4.337
			C94.764,183.967,95.99,183.625,96.828,182.94z"/>
		<path fill="#0066A9" d="M117.486,188.247H107.5l-1.969,4.623h-3.824l8.988-19.974h3.652l9.018,19.974h-3.881L117.486,188.247z
			 M116.26,185.336l-3.767-8.731l-3.737,8.731H116.26z"/>
		<path fill="#0066A9" d="M143.652,172.896v19.974h-3.053l-11.015-13.525v13.525h-3.681v-19.974h3.053l11.014,13.525v-13.525
			H143.652z"/>
		<path fill="#0066A9" d="M157.634,185.822v7.048h-3.709v-6.991l-7.847-12.983h3.966l5.85,9.73l5.906-9.73h3.652L157.634,185.822z"
			/>
	</g>
</g>
</svg>
