<?xml version="1.0" encoding="utf-8"?>
<!-- Generator: Adobe Illustrator 24.0.0, SVG Export Plug-In . SVG Version: 6.00 Build 0)  -->
<svg version="1.1" id="Layer_1" xmlns="http://www.w3.org/2000/svg" xmlns:xlink="http://www.w3.org/1999/xlink" x="0px" y="0px"
	 viewBox="0 0 175 200" enable-background="new 0 0 175 200" xml:space="preserve">
<g>
	<g>
		<path fill="#433149" d="M53.036,138.086h5.905c2.646,0,4.608,0.404,5.885,1.212c1.276,0.808,1.915,2.094,1.915,3.858
			c0,0.26-0.016,0.518-0.049,0.773c-0.032,0.255-0.117,0.582-0.251,0.982s-0.318,0.764-0.55,1.093
			c-0.232,0.33-0.573,0.659-1.024,0.989c-0.45,0.33-0.978,0.592-1.581,0.786c1.383,0.261,2.433,0.846,3.148,1.755
			c0.714,0.91,1.072,2.005,1.072,3.287c0,1.867-0.611,3.31-1.831,4.331c-1.221,1.022-3.039,1.532-5.453,1.532h-7.186V138.086z
			 M55.446,146.944h4.415c1.439,0,2.525-0.251,3.259-0.752c0.734-0.501,1.101-1.392,1.101-2.674c0-1.29-0.439-2.179-1.316-2.667
			c-0.878-0.487-2.24-0.731-4.088-0.731h-3.37V146.944z M55.446,148.88v7.827h4.304c1.745,0,3.054-0.322,3.927-0.968
			c0.872-0.645,1.309-1.651,1.309-3.015c0-1.421-0.471-2.416-1.413-2.987c-0.943-0.572-2.412-0.857-4.408-0.857H55.446z"/>
		<path fill="#433149" d="M91.943,158.684h-2.785l-2.841-6.462c-0.771-1.736-1.263-2.78-1.476-3.133
			c-0.678,0.046-1.481,0.07-2.409,0.07l-3.69-0.112v9.638h-2.465V137.85h6.588c0.76,0,1.434,0.019,2.019,0.055
			c0.585,0.037,1.167,0.104,1.748,0.203c0.58,0.097,1.084,0.232,1.511,0.404c0.427,0.172,0.826,0.394,1.198,0.668
			c0.371,0.274,0.671,0.601,0.898,0.982c0.228,0.381,0.406,0.833,0.536,1.358c0.13,0.525,0.195,1.116,0.195,1.775
			c0,1.301-0.342,2.419-1.024,3.357c-0.683,0.938-1.651,1.587-2.904,1.949c0,0.019,0.093,0.186,0.279,0.501
			c0.185,0.316,0.407,0.704,0.662,1.163c0.255,0.459,0.453,0.842,0.592,1.149L91.943,158.684z M78.741,140.008v6.963
			c0.38,0,1.167,0.01,2.36,0.028c1.193,0.019,2.115,0.028,2.765,0.028c1.773,0,3.008-0.295,3.704-0.884
			c0.697-0.59,1.045-1.525,1.045-2.806c0-1.123-0.334-1.959-1.003-2.507c-0.668-0.548-1.787-0.822-3.356-0.822H78.741z"/>
		<path fill="#433149" d="M114.194,158.684l-2.409-6.532h-8.217l-2.493,6.532h-2.451l7.91-20.64h2.465l7.674,20.64H114.194z
			 M111.004,150.133c-1.959-5.692-3.041-8.89-3.245-9.596l-3.384,9.596H111.004z"/>
		<path fill="#433149" d="M141.108,158.684h-2.729l-10.696-16.211l-0.697-0.961c0.075,1.95,0.112,3.691,0.112,5.223v11.949h-2.256
			v-20.598h2.688l10.724,16.211l0.71,0.961c-0.065-2.962-0.097-4.675-0.097-5.14v-12.033h2.242V158.684z"/>
		<path fill="#433149" d="M168.595,148.364c0,3.351-0.952,5.91-2.856,7.674c-1.903,1.764-4.559,2.646-7.966,2.646h-6.114v-20.598
			h5.71c1.718,0,3.254,0.202,4.61,0.606c1.356,0.404,2.533,1.016,3.531,1.838c0.998,0.822,1.762,1.894,2.29,3.217
			C168.331,145.071,168.595,146.609,168.595,148.364z M166.018,148.434c0-2.878-0.743-4.972-2.228-6.282
			c-1.485-1.309-3.649-1.963-6.49-1.963h-3.231v16.392h3.635c2.712,0,4.774-0.684,6.191-2.054
			C165.311,153.157,166.018,151.126,166.018,148.434z"/>
	</g>
	<g>
		<g>
			<polygon fill="#433149" points="76.381,59.882 89.177,59.882 89.177,40.401 7.231,40.401 7.231,122.346 89.177,122.346 
				89.177,95.804 76.381,95.804 			"/>
			<rect x="96.603" y="59.882" fill="#433149" width="23.126" height="35.922"/>
		</g>
		<path fill="#433149" d="M7.231,130.775v28.825h28.825v-28.825H7.231z M28.749,152.292h-14.21l14.21-14.21V152.292z"/>
	</g>
</g>
</svg>
