<?xml version="1.0" encoding="utf-8"?>
<!-- Generator: Adobe Illustrator 24.0.0, SVG Export Plug-In . SVG Version: 6.00 Build 0)  -->
<svg version="1.1" id="Layer_1" xmlns="http://www.w3.org/2000/svg" xmlns:xlink="http://www.w3.org/1999/xlink" x="0px" y="0px"
	 viewBox="0 0 175 200" enable-background="new 0 0 175 200" xml:space="preserve">
<g>
	<g>
		<path fill="#FCB017" d="M34.111,185.713c0.112,0,0.215,0.046,0.306,0.137l0.802,0.875c-0.619,0.717-1.369,1.276-2.251,1.677
			c-0.883,0.4-1.945,0.601-3.19,0.601c-1.09,0-2.077-0.188-2.963-0.564c-0.886-0.376-1.642-0.903-2.267-1.581
			c-0.625-0.678-1.11-1.492-1.455-2.441c-0.344-0.949-0.517-1.993-0.517-3.131c0-1.139,0.185-2.183,0.554-3.131
			c0.369-0.949,0.888-1.764,1.556-2.446c0.668-0.682,1.467-1.21,2.398-1.587c0.932-0.376,1.959-0.564,3.084-0.564
			c1.11,0,2.068,0.172,2.873,0.517c0.805,0.345,1.521,0.812,2.146,1.402l-0.664,0.938c-0.049,0.07-0.105,0.128-0.169,0.174
			c-0.063,0.046-0.154,0.069-0.273,0.069c-0.092,0-0.188-0.034-0.29-0.101c-0.103-0.066-0.224-0.149-0.364-0.247
			c-0.141-0.098-0.306-0.204-0.495-0.316c-0.19-0.112-0.415-0.218-0.675-0.316c-0.261-0.098-0.563-0.181-0.907-0.247
			c-0.344-0.067-0.741-0.1-1.191-0.1c-0.809,0-1.548,0.139-2.219,0.416c-0.672,0.278-1.25,0.673-1.734,1.186
			c-0.485,0.513-0.863,1.139-1.134,1.877c-0.27,0.738-0.406,1.564-0.406,2.478c0,0.942,0.136,1.782,0.406,2.52
			c0.271,0.738,0.64,1.362,1.107,1.872c0.467,0.51,1.021,0.898,1.66,1.165c0.64,0.267,1.328,0.4,2.066,0.4
			c0.45,0,0.854-0.026,1.213-0.079c0.358-0.053,0.69-0.135,0.996-0.248c0.306-0.112,0.591-0.255,0.854-0.427
			c0.264-0.172,0.528-0.377,0.796-0.617C33.883,185.766,33.999,185.713,34.111,185.713z"/>
		<path fill="#FCB017" d="M57.213,181.285c0,1.132-0.18,2.17-0.538,3.116c-0.358,0.945-0.864,1.759-1.519,2.441
			c-0.653,0.682-1.438,1.211-2.356,1.587c-0.917,0.376-1.931,0.564-3.041,0.564c-1.111,0-2.123-0.188-3.037-0.564
			c-0.914-0.376-1.697-0.905-2.352-1.587c-0.653-0.682-1.159-1.496-1.517-2.441c-0.358-0.945-0.538-1.984-0.538-3.116
			c0-1.131,0.18-2.17,0.538-3.116c0.358-0.945,0.864-1.761,1.517-2.446c0.654-0.686,1.438-1.218,2.352-1.598
			c0.914-0.379,1.926-0.569,3.037-0.569c1.11,0,2.124,0.19,3.041,0.569c0.918,0.38,1.703,0.912,2.356,1.598
			c0.654,0.685,1.16,1.501,1.519,2.446C57.033,179.115,57.213,180.154,57.213,181.285z M55.114,181.285
			c0-0.928-0.126-1.761-0.379-2.499c-0.254-0.738-0.612-1.361-1.076-1.871c-0.464-0.51-1.026-0.902-1.687-1.176
			c-0.661-0.274-1.399-0.411-2.214-0.411c-0.809,0-1.544,0.137-2.204,0.411c-0.661,0.274-1.225,0.666-1.692,1.176
			c-0.468,0.51-0.827,1.133-1.081,1.871c-0.253,0.738-0.379,1.571-0.379,2.499c0,0.928,0.126,1.759,0.379,2.494
			c0.254,0.734,0.613,1.356,1.081,1.866c0.468,0.51,1.031,0.9,1.692,1.17c0.66,0.271,1.396,0.406,2.204,0.406
			c0.814,0,1.553-0.135,2.214-0.406c0.66-0.27,1.223-0.661,1.687-1.17c0.464-0.51,0.822-1.132,1.076-1.866
			C54.988,183.044,55.114,182.213,55.114,181.285z"/>
		<path fill="#FCB017" d="M72.969,183.905c0.074,0.187,0.146,0.375,0.216,0.564c0.07-0.197,0.145-0.385,0.222-0.564
			c0.077-0.179,0.165-0.36,0.264-0.543l5.113-9.289c0.092-0.162,0.187-0.26,0.285-0.295c0.099-0.035,0.239-0.053,0.422-0.053h1.508
			v15.109h-1.793v-11.102c0-0.148,0.004-0.306,0.011-0.475c0.007-0.169,0.018-0.341,0.032-0.517l-5.178,9.447
			c-0.176,0.316-0.422,0.475-0.737,0.475h-0.296c-0.316,0-0.563-0.158-0.738-0.475l-5.292-9.479
			c0.021,0.183,0.036,0.362,0.047,0.538c0.011,0.176,0.016,0.337,0.016,0.485v11.102h-1.792v-15.109h1.508
			c0.183,0,0.323,0.018,0.422,0.053c0.098,0.035,0.193,0.133,0.284,0.295l5.22,9.3C72.809,183.541,72.896,183.719,72.969,183.905z"
			/>
		<path fill="#FCB017" d="M92.196,183.183v5.651h-2.035v-15.109h4.46c0.956,0,1.787,0.11,2.493,0.332
			c0.707,0.221,1.292,0.536,1.756,0.943c0.464,0.408,0.81,0.9,1.038,1.476c0.229,0.577,0.343,1.22,0.343,1.93
			c0,0.703-0.123,1.346-0.369,1.93c-0.246,0.583-0.605,1.086-1.08,1.508c-0.475,0.421-1.063,0.75-1.767,0.986
			c-0.703,0.235-1.508,0.353-2.414,0.353H92.196z M92.196,181.559h2.425c0.583,0,1.098-0.078,1.545-0.232
			c0.446-0.154,0.82-0.371,1.122-0.648c0.303-0.277,0.531-0.609,0.686-0.996c0.154-0.387,0.232-0.812,0.232-1.276
			c0-0.963-0.297-1.715-0.892-2.256c-0.594-0.541-1.491-0.812-2.693-0.812h-2.425V181.559z"/>
		<path fill="#FCB017" d="M119.083,188.834h-1.582c-0.183,0-0.33-0.045-0.442-0.137c-0.112-0.091-0.197-0.207-0.253-0.348
			l-1.413-3.648h-6.779l-1.413,3.648c-0.05,0.126-0.134,0.239-0.253,0.337c-0.12,0.098-0.268,0.147-0.443,0.147h-1.581l6.041-15.109
			h2.077L119.083,188.834z M109.182,183.225h5.641l-2.372-6.147c-0.155-0.379-0.307-0.854-0.454-1.423
			c-0.077,0.289-0.152,0.554-0.227,0.796c-0.073,0.242-0.146,0.455-0.216,0.638L109.182,183.225z"/>
		<path fill="#FCB017" d="M127.722,173.794c0.088,0.046,0.188,0.139,0.301,0.279l8.751,11.387c-0.02-0.183-0.035-0.36-0.042-0.532
			c-0.007-0.172-0.011-0.339-0.011-0.501v-10.702h1.793v15.109h-1.033c-0.162,0-0.298-0.028-0.406-0.084
			c-0.109-0.056-0.216-0.151-0.321-0.285l-8.741-11.376c0.014,0.176,0.024,0.348,0.032,0.517c0.007,0.169,0.01,0.323,0.01,0.464
			v10.765h-1.792v-15.109h1.055C127.5,173.725,127.635,173.748,127.722,173.794z"/>
		<path fill="#FCB017" d="M153.297,182.824v6.01h-2.035v-6.01l-5.535-9.099h1.792c0.183,0,0.327,0.045,0.433,0.137
			c0.105,0.092,0.196,0.204,0.273,0.337l3.459,5.873c0.141,0.246,0.258,0.478,0.352,0.696c0.096,0.218,0.182,0.432,0.259,0.643
			c0.077-0.218,0.161-0.436,0.253-0.654c0.092-0.218,0.207-0.446,0.348-0.685l3.448-5.873c0.063-0.112,0.149-0.219,0.258-0.321
			c0.109-0.102,0.252-0.153,0.428-0.153h1.814L153.297,182.824z"/>
	</g>
	<g>
		<g>
			<path fill="#FCB017" d="M71.976,148.37c0.876,0.11,1.757,0.2,2.643,0.276c13.633-6.053,25.144-16.027,33.182-28.979
				c7.791-12.555,11.631-26.792,11.288-41.227l-14.869-14.869C110.262,94.962,98.409,128.191,71.976,148.37z"/>
			<path fill="#FCB017" d="M66.669,147.682c0.135,0.026,0.27,0.053,0.406,0.078c28.342-20.199,40.498-55.455,32.476-87.882
				L78.375,38.702C95.383,73.292,91.947,115.959,66.669,147.682z"/>
			<path fill="#FCB017" d="M138.498,95.896c-3.582,16.16-12.195,30.7-24.915,41.763c-3.717,3.232-7.683,6.067-11.842,8.506
				c20.785-6.053,37.612-21.646,45.354-41.672L138.498,95.896z"/>
			<path fill="#FCB017" d="M135.129,93.504l-12.227-12.227c-0.191,13.979-4.17,27.691-11.731,39.876
				c-7.388,11.905-17.608,21.378-29.676,27.754c0.019,0,0.037,0.001,0.056,0.001h0c2.778,0,5.518-0.167,8.212-0.49
				C112.645,139.07,130.142,118.699,135.129,93.504z"/>
			<path fill="#FCB017" d="M68.469,29.773L53.855,15.159C27.945,25.175,9.441,50.392,9.441,79.726v0
				c0,32.341,22.492,59.679,52.605,67.156C90.106,112.832,91.611,65.164,68.469,29.773z"/>
		</g>
		<path fill="#FCB017" d="M168.837,91.256c0-38.05-31.132-69.182-69.182-69.182h0c-8.717,0-17.068,1.638-24.767,4.614l89.335,89.335
			C167.199,108.324,168.837,99.973,168.837,91.256L168.837,91.256z"/>
	</g>
</g>
</svg>
